<svg xmlns="http://www.w3.org/2000/svg" xmlns:cc="http://web.resource.org/cc/" xmlns:svg="http://www.w3.org/2000/svg" id="svg2" width="744.094" height="1052.362"><metadata id="metadata7"/><g id="layer1"><path style="fill:red" id="path2160" d="M 500,686.64789 A 220,188.57143 0 1 1 499.40469,672.78487" transform="translate(88.571429,-185.71429)"/><path style="fill:#fff;fill-opacity:1" id="path2164" d="M 508.57143,318.07648 A 188.57143,162.85715 0 1 1 508.06116,306.10387" transform="translate(48.571429,182.85714)"/><rect style="fill:red;fill-opacity:1" id="rect3136" width="177.143" height="31.429" x="280" y="589.505"/><path style="fill:red;fill-opacity:1" id="path3138" d="M 205.71429,163.79076 A 51.42857,51.42857 0 1 1 205.57513,160.00993" transform="translate(140,280)"/><path style="fill:#000;fill-opacity:1" id="path3142" d="M 251.42857,136.6479 A 15.714286,15.714286 0 1 1 251.38604,135.49265" transform="matrix(1.4545455,0,0,1.4545455,-45.714282,245.03017)"/><path style="fill:red;fill-opacity:1" id="path3144" d="M 205.71429,163.79076 A 51.42857,51.42857 0 1 1 205.57513,160.00993" transform="translate(291.42856,282.85714)"/><path style="fill:#000;fill-opacity:1" id="path3146" d="M 251.42857,136.6479 A 15.714286,15.714286 0 1 1 251.38604,135.49265" transform="matrix(1.4545455,0,0,1.4545455,105.71428,247.88731)"/><path style="fill:#4d4d4d;fill-rule:evenodd;stroke:#000;stroke-width:1px;stroke-linecap:butt;stroke-linejoin:miter;stroke-opacity:1" id="path3156" d="M 128.57143,86.647896 C 130.1472,88.366928 127.03164,89.620122 125.71428,89.266942 C 122.14433,88.309844 121.76559,83.667408 123.33333,80.933606 C 126.13766,76.043477 132.88054,75.749488 137.14286,78.790759 C 143.39799,83.253945 143.60174,92.340167 139.04761,98.076475 C 132.97767,105.72207 121.47651,105.82704 114.2857,99.743125 C 105.23681,92.08714 105.23467,78.141011 112.85715,69.505027 C 122.089,59.045694 138.49553,59.148429 148.57144,68.314576 C 160.44555,79.116562 160.2368,97.992501 149.52379,109.50505 C 137.1552,122.79675 115.80413,122.48131 102.85712,110.21931 C 88.145907,96.286437 88.568474,72.456381 102.38097,58.076448 C 117.8765,41.944337 144.18828,42.474325 160.00002,57.838393 C 177.55404,74.895419 176.91643,103.69094 159.99998,120.93363" transform="translate(220,168.57143)"/><rect style="fill:#4d4d4d;fill-opacity:1" id="rect3160" width="17.143" height="48.571" x="360" y="278.076"/></g></svg>